#!OML:ASF E:/inclinewalkrobotboard/Project1/Captureday1/Session1/subject1.ASF
:FULLY-SPECIFIED
:DEGREES
176
root 0 0 0 -1.4085552272104351 21.438659813170407 8.59711008761798
lowerback -4.0317836948653 -6.062992552987216 -6.3666190923800094
upperback -8.394838595144561 -7.508181669041637 6.980681396142623
thorax -6.090768646453892 -2.6185690755713473 10.971445547455321
lowerneck -5.595443157490769 -8.87486933173191 -7.6700636042400125
upperneck 32.21799222869473 -11.459780264007728 1.8779230779432112
head 12.134963010245889 -5.8338209160842895 0.3690479016706101
rclavicle -3.8326338615462E-15 -2.4628457572330413E-15
rhumerus -19.01462580696525 -26.946919225965168 -16.61283441762604
rradius 62.36960332980729
rwrist -12.20184481244361
rhand -26.62047544985531 32.383381173827324
rfingers 7.1250199999999655
rthumb -0.036043151946905994 1.6088151004123823
lclavicle -1.5586320124693278E-17 -3.91958304501976E-15
lhumerus 22.607299884776722 3.595017975116472 42.15307493506088
lradius 63.74464259861588
lwrist -7.190272691237872
lhand -14.199668743428264 7.434576149061236
lfingers 7.1250199999999655
lthumb 11.77769444820801 35.61176077499303
rfemur 138.96020638035617 -154.74996886769858 -120.28683013728948
rtibia 28.483582629243184
rfoot -13.769241915807513 -49.861352716898836
rtoes 4.619471971972484
lfemur -82.07071622359851 23.999092766719684 -57.11815265721577
ltibia 68.22735784199647
lfoot 12.524334396994387 32.00509308469333
ltoes 0.08297523589234324
177
root 0 0 0 -1.407989229980629 21.455895255824014 8.59592053705333
lowerback -4.034544652697815 -6.063340603651744 -6.365126235436571
upperback -8.395822286462684 -7.50839943573024 6.981960961924257
thorax -6.08992590792033 -2.6188389414347695 10.971866291391468
lowerneck -5.59479646601829 -8.877042437702233 -7.671845756101032
upperneck 32.22037200626531 -11.462207066390523 1.8759591639750022
head 12.135826272534224 -5.835191561574391 0.3684311883196495
rclavicle -3.772029890551114E-15 -2.4543003170048857E-15
rhumerus -18.971407728125634 -26.942034276302167 -16.648761148776977
rradius 62.376036964530265
rwrist -12.224352626502402
rhand -26.61817170262645 32.37768028356989
rfingers 7.1250199999999655
rthumb -0.033771762589285714 1.603337977903255
lclavicle 1.003713645496749E-16 -3.887481751939849E-15
lhumerus 22.57061906510767 3.5738122240987815 42.14332277253775
lradius 63.76601231351852
lwrist -7.1742989425984245
lhand -14.19275220022678 7.441768082668023
lfingers 7.1250199999999655
lthumb 11.78401095195234 35.61651012439091
rfemur 139.04978953242096 -154.86811447065875 -120.37924297606536
rtibia 28.48247103172537
rfoot -13.800457252293056 -49.85840917847817
rtoes 4.626226286064789
lfemur -82.06571718865638 24.01273635769744 -57.08567573686817
ltibia 68.26269823693934
lfoot 12.470944311972037 31.990207616956784
ltoes 0.08452608316272325
178
root 0 0 0 -1.4072714701828488 21.4584326360667 8.593338430313848
lowerback -4.034670804731847 -6.063287488627699 -6.363559753684633
upperback -8.39560164546793 -7.508300583708953 6.982323548502835
thorax -6.0894278424867405 -2.6190095476777513 10.971369236556683
lowerneck -5.595196870952807 -8.877518068682821 -7.672310475372878
upperneck 32.22120804548905 -11.46285957280728 1.875821621425771
head 12.136297584655205 -5.835515040429869 0.3683982624047736
rclavicle -3.763167162501155E-15 -2.4541003509599784E-15
rhumerus -18.957862907921907 -26.939425779266465 -16.657662744888377
rradius 62.38002735248319
rwrist -12.231485643581692
rhand -26.617956693585217 32.377237968716585
rfingers 7.1250199999999655
rthumb -0.03355794073826601 1.603052773682478
lclavicle 1.2378301545926955E-16 -3.888054172442966E-15
lhumerus 22.52567997764365 3.5404111069540867 42.18266145683802
lradius 63.77906806203258
lwrist -7.140316395711279
lhand -14.187703918869857 7.446232918632322
lfingers 7.1250199999999655
lthumb 11.788642125800132 35.61809823007494
rfemur 139.0842596289813 -154.90912294454495 -120.41322730622181
rtibia 28.48284958290087
rfoot -13.81380218520147 -49.84813446094705
rtoes 4.626783089963325
lfemur -82.06308824495522 24.01651622373077 -57.068920522532956
ltibia 68.27923736560768
lfoot 12.462187271812216 31.97754895679538
ltoes 0.08726338078625773
179
root 0 0 0 -1.4064331439568356 21.45711555919745 8.591013202362246
lowerback -4.034372283097968 -6.063162762568396 -6.362269479721302
upperback -8.395275341918117 -7.508155037045649 6.982428082665635
thorax -6.08912800361421 -2.619121327117824 10.970765909663193
lowerneck -5.595734198459928 -8.877522813002361 -7.672383264827952
upperneck 32.221544841740396 -11.462985797243217 1.8760707245909414
head 12.136583970186567 -5.8355420010343755 0.3684883099366343
rclavicle -3.759661504975083E-15 -2.452934453720594E-15
rhumerus -18.95182186224548 -26.938350700608087 -16.66094552413881
rradius 62.382624970612206
rwrist -12.2353657597505
rhand -26.618095579690706 32.37739745001614
rfingers 7.1250199999999655
rthumb -0.0336977557284861 1.6032779910151298
lclavicle 1.3487554991595527E-16 -3.886622073515651E-15
lhumerus 22.492437091127833 3.5126891290599707 42.21370956063955
lradius 63.788282727667436
lwrist -7.11344621878848
lhand -14.179062785150528 7.4496574145052215
lfingers 7.1250199999999655
lthumb 11.79673664843624 35.61846073466776
rfemur 139.10750593766517 -154.93459307433844 -120.43540395213972
rtibia 28.48263952633924
rfoot -13.818666324842024 -49.843476767229845
rtoes 4.627488350208154
lfemur -82.06361452148155 24.01888445435138 -57.056604657404634
ltibia 68.2895665615922
lfoot 12.459473218252366 31.968882484984007
ltoes 0.09013468553814441
180
root 0 0 0 -1.4178423372460252 21.452840264299123 8.59514851555483
lowerback -4.024570351619017 -6.062744054386419 -6.362932503395996
upperback -8.39107842275654 -7.507724887570724 6.981234443409997
thorax -6.0906286602034765 -2.6186551407844387 10.969867056982377
lowerneck -5.597302857845699 -8.875688359070205 -7.670874393969876
upperneck 32.21474687851044 -11.460003984370385 1.8761054490434268
head 12.134064505992994 -5.834221253252563 0.3684704117396659
rclavicle -3.769887740881319E-15 -2.4535656887896824E-15
rhumerus -18.98087815177196 -26.938536009047866 -16.658719698624836
rradius 62.38139947026356
rwrist -12.22944387097536
rhand -26.618948240920435 32.38234543348162
rfingers 7.1250199999999655
rthumb -0.034538493105841894 1.6084278427684033
lclavicle 1.1008737005902527E-16 -3.903591287471014E-15
lhumerus 22.315709273325776 3.4555318560963046 42.482152331398325
lradius 63.800930548056634
lwrist -6.981508620809594
lhand -14.25821403238028 7.452468650686644
lfingers 7.125019999999965
lthumb 11.720934423107854 35.62876946322489
rfemur 138.83771437004197 -154.66963923462976 -120.16108963833588
rtibia 28.42966567327876
rfoot -13.870029304160585 -49.70183038137941
rtoes 4.552690360749764
lfemur -82.0791061385217 24.007160112500422 -57.088013755142015
ltibia 68.2068807458279
lfoot 12.542297930359734 32.00047095419857
ltoes 0.10438061399475984
